<?xml version="1.0" encoding="UTF-8"?>
<svg width="100px" height="100px" viewBox="0 0 100 100" version="1.1" xmlns="http://www.w3.org/2000/svg" xmlns:xlink="http://www.w3.org/1999/xlink">
    <!-- Generator: Sketch 49.2 (51160) - http://www.bohemiancoding.com/sketch -->
    <title>kd-logo</title>
    <desc>Created with Sketch.</desc>
    <defs></defs>
    <g id="knottingdev" stroke="none" stroke-width="1" fill="none" fill-rule="evenodd">
        <g id="index-desktop" transform="translate(-56.000000, -28.000000)" fill="#124D75">
            <g id="kd-logo" transform="translate(56.000000, 28.000000)">
                <g id="logo-frame">
                    <path d="M94.7666667,62.1769231 L94.7666667,94.4726496 L4.81452991,94.4726496 L4.81452991,62.1769231 C3.22905983,62.1786325 1.66666667,62.1854701 0.141025641,62.1991453 L0.141025641,96.8094017 C0.141025641,98.1 1.18717949,99.1452991 2.47692308,99.1452991 L97.1034188,99.1452991 C98.3923077,99.1452991 99.4393162,98.1 99.4393162,96.8094017 L99.4393162,62.1923077 C98.0282051,62.1820513 96.5923077,62.1769231 95.1358974,62.1769231 C95.0128205,62.1769231 94.8897436,62.1769231 94.7666667,62.1769231" id="Fill-1"></path>
                    <path d="M4.81452991,4.81111111 L94.7666667,4.81111111 L94.7666667,41.0495726 C94.8974359,41.0495726 95.0299145,41.0495726 95.1606838,41.0495726 C96.6076923,41.0495726 98.0358974,41.0444444 99.4393162,41.0350427 L99.4393162,2.47521368 C99.4393162,1.18461538 98.3923077,0.138461538 97.1034188,0.138461538 L2.47692308,0.138461538 C1.18717949,0.138461538 0.141025641,1.18461538 0.141025641,2.47521368 L0.141025641,41.0264957 C1.66666667,41.0393162 3.22905983,41.0470085 4.81452991,41.0487179 L4.81452991,4.81111111" id="Fill-2"></path>
                </g>
                <g id="knotting" transform="translate(10.000000, 9.000000)">
                    <polyline id="Fill-3" points="0.0205128205 0.577777778 0.0205128205 17.0273504 2.84444444 17.0273504 2.84444444 11.1948718 3.84786325 9.37264957 3.89316239 9.37264957 6.19401709 17.0273504 9.06495726 17.0273504 5.62393162 6.70683761 8.67777778 0.577777778 5.85299145 0.577777778 2.89059829 6.66153846 2.84444444 6.66153846 2.84444444 0.577777778 0.0205128205 0.577777778"></polyline>
                    <polyline id="Fill-4" points="19.582906 17.0273504 19.582906 0.577777778 17.0324786 0.577777778 17.0324786 9.98803419 16.9863248 9.98803419 13.5461538 0.577777778 10.925641 0.577777778 10.925641 17.0273504 13.4777778 17.0273504 13.4777778 6.75213675 13.5239316 6.75213675 17.1222222 17.0273504 19.582906 17.0273504"></polyline>
                    <path d="M25.1555556,12.9717949 L25.1555556,4.63333333 C25.1555556,3.4034188 25.5205128,2.81025641 26.6598291,2.81025641 C27.7982906,2.81025641 28.1632479,3.4034188 28.1632479,4.63333333 L28.1632479,12.9717949 C28.1632479,14.2025641 27.7982906,14.7948718 26.6598291,14.7948718 C25.5205128,14.7948718 25.1555556,14.2025641 25.1555556,12.9717949 Z M30.9880342,13.0410256 L30.9880342,4.56495726 C30.9880342,2.24102564 29.6205128,0.34957265 26.6598291,0.34957265 C23.6974359,0.34957265 22.3307692,2.24102564 22.3307692,4.56495726 L22.3307692,13.0410256 C22.3307692,15.3649573 23.6974359,17.2555556 26.6598291,17.2555556 C29.6205128,17.2555556 30.9880342,15.3649573 30.9880342,13.0410256 Z" id="Fill-5"></path>
                    <polyline id="Fill-6" points="38.4145299 17.0273504 38.4145299 3.03846154 41.1478632 3.03846154 41.1478632 0.577777778 32.8547009 0.577777778 32.8547009 3.03846154 35.5888889 3.03846154 35.5888889 17.0273504 38.4145299 17.0273504"></polyline>
                    <polyline id="Fill-7" points="48.4145299 17.0273504 48.4145299 3.03846154 51.1487179 3.03846154 51.1487179 0.577777778 42.8555556 0.577777778 42.8555556 3.03846154 45.5888889 3.03846154 45.5888889 17.0273504 48.4145299 17.0273504"></polyline>
                    <polygon id="Fill-8" points="53.425641 17.0282051 56.2504274 17.0282051 56.2504274 0.577777778 53.425641 0.577777778"></polygon>
                    <polyline id="Fill-9" points="68.2564103 17.0273504 68.2564103 0.577777778 65.7051282 0.577777778 65.7051282 9.98803419 65.6589744 9.98803419 62.2188034 0.577777778 59.5991453 0.577777778 59.5991453 17.0273504 62.1504274 17.0273504 62.1504274 6.75213675 62.1965812 6.75213675 65.7957265 17.0273504 68.2564103 17.0273504"></polyline>
                    <path d="M75.2948718,2.81025641 C76.4119658,2.81025641 76.9128205,3.44871795 76.9128205,5.90940171 L79.6008547,5.90940171 L79.6008547,4.86153846 C79.6008547,2.4008547 78.1888889,0.34957265 75.3632479,0.34957265 C72.5837607,0.34957265 71.2162393,2.24102564 71.2162393,4.56495726 L71.2162393,13.0410256 C71.2162393,15.6606838 72.765812,17.2555556 74.9982906,17.2555556 C76.3196581,17.2555556 77.0034188,16.8 77.8461538,15.7974359 L78.3709402,17.0273504 L79.7376068,17.0273504 L79.7376068,8.68888889 L75.1128205,8.68888889 L75.1128205,10.9222222 L76.9128205,10.9222222 L76.9128205,12.5162393 C76.9128205,14.157265 76.5025641,14.7948718 75.3632479,14.7948718 C74.3837607,14.7948718 74.0418803,14.1111111 74.0418803,13.0632479 L74.0418803,4.61025641 C74.0418803,3.22051282 74.6111111,2.81025641 75.2948718,2.81025641" id="Fill-10"></path>
                </g>
                <g id="developments" transform="translate(9.000000, 78.000000)">
                    <path d="M4.5965812,3.85299145 L4.5965812,8.37435897 C4.5965812,9.46068376 4.26666667,9.81794872 3.32393162,9.81794872 L2.70769231,9.81794872 L2.70769231,2.40769231 L3.32393162,2.40769231 C4.26666667,2.40769231 4.5965812,2.76581197 4.5965812,3.85299145 Z M0.934188034,0.94957265 L0.934188034,11.2777778 L3.56666667,11.2777778 C5.3982906,11.2777778 6.37008547,10.2769231 6.37008547,8.15897436 L6.37008547,4.06752137 C6.37008547,1.95042735 5.3982906,0.94957265 3.56666667,0.94957265 L0.934188034,0.94957265 Z" id="Fill-11"></path>
                    <polyline id="Fill-12" points="12.6264957 2.49316239 12.6264957 0.94957265 7.87606838 0.94957265 7.87606838 11.2777778 12.8264957 11.2777778 12.8264957 9.73333333 9.64957265 9.73333333 9.64957265 6.7 11.9393162 6.7 11.9393162 5.15470085 9.64957265 5.15470085 9.64957265 2.49316239 12.6264957 2.49316239"></polyline>
                    <polyline id="Fill-13" points="16.8897436 8.11623932 15.6025641 0.94957265 13.857265 0.94957265 16.0179487 11.2777778 17.791453 11.2777778 19.9512821 0.94957265 18.2068376 0.94957265 16.9188034 8.11623932 16.8897436 8.11623932"></polyline>
                    <polyline id="Fill-14" points="25.9769231 2.49316239 25.9769231 0.94957265 21.2264957 0.94957265 21.2264957 11.2777778 26.1769231 11.2777778 26.1769231 9.73333333 23 9.73333333 23 6.7 25.2897436 6.7 25.2897436 5.15470085 23 5.15470085 23 2.49316239 25.9769231 2.49316239"></polyline>
                    <polyline id="Fill-15" points="27.8512821 0.94957265 27.8512821 11.2777778 32.4153846 11.2777778 32.4153846 9.73333333 29.625641 9.73333333 29.625641 0.94957265 27.8512821 0.94957265"></polyline>
                    <path d="M37.0965812,3.49487179 L37.0965812,8.73162393 C37.0965812,9.5042735 36.8675214,9.87606838 36.1512821,9.87606838 C35.4367521,9.87606838 35.208547,9.5042735 35.208547,8.73162393 L35.208547,3.49487179 C35.208547,2.72307692 35.4367521,2.35128205 36.1512821,2.35128205 C36.8675214,2.35128205 37.0965812,2.72307692 37.0965812,3.49487179 Z M33.434188,3.45213675 L33.434188,8.77521368 C33.434188,10.234188 34.291453,11.4205128 36.1512821,11.4205128 C38.0119658,11.4205128 38.8709402,10.234188 38.8709402,8.77521368 L38.8709402,3.45213675 C38.8709402,1.99230769 38.0119658,0.805128205 36.1512821,0.805128205 C34.291453,0.805128205 33.434188,1.99230769 33.434188,3.45213675 Z" id="Fill-16"></path>
                    <path d="M44.6376068,3.9957265 C44.6376068,5.22564103 44.2803419,5.58376068 43.1213675,5.58376068 L42.4350427,5.58376068 L42.4350427,2.40769231 L43.1213675,2.40769231 C44.2803419,2.40769231 44.6376068,2.76581197 44.6376068,3.9957265 Z M40.6615385,0.94957265 L40.6615385,11.2777778 L42.4350427,11.2777778 L42.4350427,7.04358974 L43.2068376,7.04358974 C45.3965812,7.04358974 46.4119658,6.1991453 46.4119658,3.9957265 C46.4119658,1.79316239 45.3965812,0.94957265 43.2068376,0.94957265 L40.6615385,0.94957265 Z" id="Fill-17"></path>
                    <polyline id="Fill-18" points="54.8547009 11.2777778 54.8547009 0.94957265 52.5222222 0.94957265 51.2641026 6.98632479 51.2358974 6.98632479 49.9769231 0.94957265 47.6444444 0.94957265 47.6444444 11.2777778 49.1888889 11.2777778 49.1888889 3.20940171 49.2179487 3.20940171 50.8196581 11.2777778 51.6786325 11.2777778 53.2811966 3.20940171 53.3094017 3.20940171 53.3094017 11.2777778 54.8547009 11.2777778"></polyline>
                    <polyline id="Fill-19" points="61.3811966 2.49316239 61.3811966 0.94957265 56.6307692 0.94957265 56.6307692 11.2777778 61.5811966 11.2777778 61.5811966 9.73333333 58.4051282 9.73333333 58.4051282 6.7 60.6940171 6.7 60.6940171 5.15470085 58.4051282 5.15470085 58.4051282 2.49316239 61.3811966 2.49316239"></polyline>
                    <polyline id="Fill-20" points="64.7307692 11.2777778 64.7307692 4.82564103 64.7589744 4.82564103 67.0188034 11.2777778 68.5649573 11.2777778 68.5649573 0.94957265 66.9623932 0.94957265 66.9623932 6.85726496 66.934188 6.85726496 64.7735043 0.94957265 63.1282051 0.94957265 63.1282051 11.2777778 64.7307692 11.2777778"></polyline>
                    <polyline id="Fill-21" points="73.2307692 11.2777778 73.2307692 2.49316239 74.9478632 2.49316239 74.9478632 0.94957265 69.7401709 0.94957265 69.7401709 2.49316239 71.4564103 2.49316239 71.4564103 11.2777778 73.2307692 11.2777778"></polyline>
                    <path d="M78.425641,9.87606838 C77.8529915,9.87606838 77.4384615,9.36068376 77.3675214,8.31709402 L75.6786325,8.55982906 C75.7504274,10.1051282 76.6948718,11.4205128 78.3401709,11.4205128 C79.9991453,11.4205128 81.1444444,10.4769231 81.1444444,8.77521368 C81.1444444,5.97094017 77.5384615,5.12564103 77.5384615,3.36666667 C77.5384615,2.72307692 77.8529915,2.35128205 78.425641,2.35128205 C78.8264957,2.35128205 79.2991453,2.60854701 79.3700855,3.49487179 L81.0581197,3.30940171 C80.9008547,1.85042735 80.042735,0.805128205 78.5974359,0.805128205 C76.8512821,0.805128205 75.8504274,1.73504274 75.8504274,3.38119658 C75.8504274,6.34273504 79.4555556,6.88632479 79.4555556,8.93162393 C79.4555556,9.54700855 79.0410256,9.87606838 78.425641,9.87606838" id="Fill-22"></path>
                </g>
                <g id="knot" transform="translate(0.000000, 30.000000)">
                    <path d="M57.4205128,7.82735043 C57.8384615,7.65470085 58.1735043,7.54957265 58.4589744,7.48205128 C58.7316239,7.41794872 58.9615385,7.38547009 59.1871795,7.35384615 L59.5162393,7.30598291 C59.5213675,7.30512821 59.5264957,7.30598291 59.5316239,7.30512821 L59.5470085,7.3025641 L59.5487179,7.3034188 C61.0034188,7.1025641 62.3871795,7.71794872 63.7111111,9.0957265 C64.0811966,9.21452991 64.4538462,9.32820513 64.8333333,9.42905983 C64.8598291,9.43675214 64.8846154,9.44444444 64.9102564,9.45213675 C65.3632479,9.57094017 65.8222222,9.67777778 66.2846154,9.77606838 C66.4282051,9.80598291 66.5735043,9.83162393 66.7188034,9.86068376 C67.0401709,9.92393162 67.3632479,9.98547009 67.6888889,10.0401709 C67.8598291,10.0692308 68.0299145,10.0957265 68.2008547,10.1213675 C68.508547,10.1692308 68.817094,10.2136752 69.125641,10.2547009 C69.2940171,10.2769231 69.4623932,10.2991453 69.6316239,10.3196581 C69.9606838,10.3589744 70.2897436,10.3948718 70.6188034,10.4273504 C70.7589744,10.4410256 70.8991453,10.457265 71.0393162,10.4700855 C71.925641,10.5521368 72.8042735,10.6119658 73.6632479,10.6581197 C72.2880342,7.63333333 68.2,0.48034188 60.2273504,0.48034188 C59.5641026,0.48034188 58.8820513,0.532478632 58.1974359,0.634188034 L57.9205128,0.672649573 C56.0615385,0.936752137 54.3598291,1.3008547 50.8811966,3.33418803 L50.8786325,3.33589744 C50.1769231,3.74615385 49.4111111,4.22136752 48.5769231,4.76068376 C48.5273504,4.79230769 48.4786325,4.82478632 48.4290598,4.85641026 C48.0153846,5.12649573 47.5794872,5.41538462 47.1316239,5.71709402 C46.665812,6.03076923 46.1871795,6.35641026 45.682906,6.70598291 C45.0042735,7.17692308 44.2888889,7.68205128 43.5367521,8.22222222 C43.0264957,8.58803419 42.4700855,8.94017094 41.7880342,9.32905983 L41.4675214,9.51111111 L41.4358974,9.50683761 C40.417094,10.0564103 39.3393162,10.5452991 38.2,10.942735 C38.1435897,11.0094017 38.0871795,11.0760684 38.0324786,11.1444444 C37.965812,11.2273504 37.8982906,11.3094017 37.834188,11.3948718 C37.7555556,11.4991453 37.6794872,11.6051282 37.6051282,11.7111111 C37.5470085,11.7940171 37.4871795,11.8769231 37.4324786,11.9598291 C37.3581197,12.0700855 37.2888889,12.1794872 37.2205128,12.2888889 C37.1700855,12.3683761 37.1188034,12.4478632 37.0709402,12.5273504 C37.0034188,12.6393162 36.9418803,12.7478632 36.8794872,12.8564103 C36.8393162,12.9282051 36.7957265,13.0008547 36.757265,13.0709402 C36.6957265,13.1820513 36.6393162,13.2880342 36.5846154,13.3923077 C36.5538462,13.4521368 36.5196581,13.5145299 36.4905983,13.5700855 C36.434188,13.6811966 36.3854701,13.7811966 36.3384615,13.8794872 C36.3179487,13.9196581 36.2948718,13.9649573 36.2769231,14.0025641 C36.2264957,14.1102564 36.1837607,14.2025641 36.1452991,14.2871795 C36.1367521,14.3051282 36.125641,14.3299145 36.117094,14.3478632 C36.0735043,14.4444444 36.0393162,14.5247863 36.0153846,14.5811966 L36.0162393,14.5820513 L35.7948718,15.1136752 C35.791453,15.1213675 35.7760684,15.1598291 35.7581197,15.2068376 C35.7512821,15.2239316 35.7410256,15.2538462 35.7333333,15.2760684 C35.7162393,15.3205128 35.6974359,15.3752137 35.6752137,15.4384615 C35.6623932,15.4777778 35.6461538,15.5282051 35.6307692,15.574359 C35.608547,15.6435897 35.5846154,15.7230769 35.5589744,15.8068376 C35.5410256,15.8675214 35.5230769,15.9324786 35.5034188,16 C35.4769231,16.0965812 35.4487179,16.2051282 35.4196581,16.3153846 C35.4008547,16.391453 35.3811966,16.4666667 35.3623932,16.5487179 C35.3299145,16.6863248 35.2974359,16.8401709 35.2649573,16.9957265 C35.2495726,17.0700855 35.234188,17.1376068 35.2188034,17.2153846 C35.1726496,17.4564103 35.1290598,17.7162393 35.0880342,17.9948718 C35.0811966,18.0418803 35.0760684,18.0957265 35.0692308,18.1444444 C35.042735,18.3444444 35.0188034,18.557265 34.9957265,18.7752137 C40.4094017,17.8538462 44.7247863,16.1495726 48.4880342,13.4615385 L48.4863248,13.4598291 L49.6811966,12.6162393 C49.6965812,12.6059829 49.7119658,12.5940171 49.7264957,12.5846154 C53.5435897,9.88974359 55.6623932,8.63076923 56.9991453,8.01282051 C57.1487179,7.94273504 57.2888889,7.88119658 57.4205128,7.82735043" id="Fill-23"></path>
                    <path d="M4.81452991,19.9538462 C5.07350427,19.9538462 5.32991453,19.9547009 5.58974359,19.9547009 C10.5264957,19.9547009 15.4521368,19.9 19.8350427,19.7957265 L21.2230769,19.7641026 C21.7478632,19.7512821 22.2760684,19.7393162 22.8025641,19.7264957 C22.8051282,19.6452991 22.8111111,19.5700855 22.8145299,19.4905983 C22.8247863,19.2598291 22.8358974,19.0324786 22.8504274,18.8094017 C22.8581197,18.6965812 22.865812,18.5846154 22.874359,18.4735043 C22.891453,18.2504274 22.9111111,18.0333333 22.9316239,17.8188034 C22.9410256,17.7299145 22.9495726,17.6401709 22.9581197,17.5521368 C22.9897436,17.257265 23.025641,16.9692308 23.0641026,16.691453 C23.0683761,16.6606838 23.0735043,16.6324786 23.0777778,16.6025641 C23.1136752,16.3512821 23.1521368,16.108547 23.1923077,15.8726496 C23.2042735,15.7965812 23.2179487,15.7239316 23.2316239,15.6495726 C23.2666667,15.4555556 23.3025641,15.2666667 23.3393162,15.082906 C23.3521368,15.0179487 23.3649573,14.9529915 23.3786325,14.8888889 C23.4247863,14.665812 23.4726496,14.4495726 23.5213675,14.2435897 C23.5239316,14.2316239 23.5264957,14.2196581 23.5290598,14.2076923 C23.582906,13.9811966 23.6376068,13.7666667 23.6923077,13.5615385 C23.7017094,13.5247863 23.7119658,13.491453 23.7213675,13.4555556 C23.765812,13.2923077 23.8094017,13.1376068 23.8529915,12.9897436 C23.8589744,12.9692308 23.865812,12.9452991 23.8717949,12.9247863 C22.8461538,12.9547009 21.8017094,12.9786325 20.7393162,13.0025641 L19.6213675,13.0282051 C15.2735043,13.1316239 10.3948718,13.1863248 5.51538462,13.1863248 C5.28119658,13.1863248 5.04786325,13.1854701 4.81452991,13.1854701 C3.22905983,13.1837607 1.66752137,13.1760684 0.141025641,13.1632479 C0.094017094,13.1623932 0.047008547,13.1623932 0,13.1615385 L0,19.9307692 C0.047008547,19.9307692 0.094017094,19.9316239 0.141025641,19.9316239 C1.66923077,19.9444444 3.23076923,19.9521368 4.81452991,19.9538462" id="Fill-25"></path>
                    <path d="M72.3145299,32.6495726 C71.8931624,32.6794872 71.4683761,32.7145299 71.0418803,32.7547009 C70.8923077,32.7683761 70.7435897,32.7846154 70.5940171,32.8 C70.2735043,32.8324786 69.9521368,32.8666667 69.6307692,32.9059829 C69.4581197,32.9264957 69.2837607,32.9504274 69.1111111,32.9717949 C68.8068376,33.0128205 68.5025641,33.057265 68.1982906,33.1034188 C68.0239316,33.1307692 67.8495726,33.157265 67.6752137,33.1871795 C67.3547009,33.2410256 67.0350427,33.3025641 66.717094,33.3649573 C66.5683761,33.3940171 66.4188034,33.4205128 66.2709402,33.4529915 C65.8094017,33.5504274 65.3521368,33.6564103 64.9017094,33.7760684 C64.8666667,33.7846154 64.8324786,33.7965812 64.7974359,33.8059829 C64.4264957,33.9051282 64.0606838,34.017094 63.6982906,34.1333333 C62.4059829,35.4760684 61.0581197,36.0871795 59.6376068,35.9273504 L59.6316239,35.9316239 L59.5598291,35.9213675 C59.5435897,35.9196581 59.5282051,35.9196581 59.5128205,35.9179487 L59.1880342,35.8709402 C58.7213675,35.8051282 58.2264957,35.7316239 57.4008547,35.3880342 C57.2752137,35.3358974 57.1418803,35.2777778 57,35.2119658 C55.6623932,34.5940171 53.5435897,33.334188 49.7230769,30.6384615 L48.4837607,29.7632479 L48.4863248,29.7615385 C44.7205128,27.0726496 40.4059829,25.3700855 34.9948718,24.4495726 C35.0247863,24.7401709 35.057265,25.0222222 35.0957265,25.2811966 C35.0957265,25.282906 35.0957265,25.282906 35.0965812,25.2837607 C35.1376068,25.5683761 35.1846154,25.8290598 35.2324786,26.074359 C35.2487179,26.1555556 35.265812,26.2282051 35.2811966,26.3059829 C35.3145299,26.4606838 35.3470085,26.6128205 35.3811966,26.7487179 C35.4,26.8273504 35.4179487,26.8982906 35.4367521,26.9692308 C35.4675214,27.0871795 35.4982906,27.2008547 35.5273504,27.3008547 C35.5444444,27.3615385 35.5615385,27.4188034 35.5777778,27.4726496 C35.6068376,27.565812 35.6333333,27.6512821 35.6589744,27.725641 C35.6709402,27.7623932 35.6846154,27.8042735 35.6957265,27.8367521 C35.7213675,27.908547 35.742735,27.9692308 35.7606838,28.0153846 C35.765812,28.0273504 35.7726496,28.0470085 35.7760684,28.057265 C35.7948718,28.1042735 35.808547,28.1358974 35.808547,28.1376068 L35.9717949,28.5401709 C35.9752137,28.5461538 36.0290598,28.6837607 36.1290598,28.9051282 C36.1299145,28.908547 36.1316239,28.9119658 36.1324786,28.9145299 C36.1521368,28.9555556 36.1735043,29.0042735 36.1957265,29.0504274 C36.2042735,29.0726496 36.2136752,29.091453 36.2239316,29.1145299 C36.242735,29.1538462 36.2641026,29.1974359 36.2846154,29.2410256 C36.3,29.274359 36.3145299,29.3059829 36.3316239,29.3393162 C36.3521368,29.3820513 36.3752137,29.4282051 36.3965812,29.4717949 C36.4162393,29.5128205 36.4358974,29.5521368 36.457265,29.5948718 C36.4786325,29.6367521 36.5017094,29.6811966 36.5247863,29.7264957 C36.5487179,29.7735043 36.5726496,29.8205128 36.5982906,29.8683761 C36.6222222,29.9136752 36.6470085,29.9606838 36.6717949,30.0068376 C36.6991453,30.0589744 36.7273504,30.1111111 36.7564103,30.1623932 C36.7820513,30.2094017 36.808547,30.2564103 36.8350427,30.3042735 C36.865812,30.3598291 36.8974359,30.4145299 36.9299145,30.4709402 C36.957265,30.5179487 36.9854701,30.5666667 37.0145299,30.6145299 C37.0487179,30.6726496 37.082906,30.7299145 37.1188034,30.7880342 C37.1478632,30.8367521 37.1777778,30.8854701 37.208547,30.9333333 C37.2452991,30.9940171 37.282906,31.0521368 37.3213675,31.1119658 C37.3529915,31.1606838 37.3846154,31.2094017 37.4162393,31.257265 C37.4564103,31.3179487 37.4974359,31.3760684 37.5384615,31.4358974 C37.5717949,31.4854701 37.6059829,31.5350427 37.6410256,31.582906 C37.6820513,31.6418803 37.7239316,31.6982906 37.7666667,31.7547009 C37.8034188,31.8051282 37.8401709,31.8555556 37.8777778,31.9051282 C37.9205128,31.9606838 37.9649573,32.0153846 38.0094017,32.0700855 C38.0487179,32.1196581 38.0871795,32.1692308 38.1264957,32.2162393 C38.1435897,32.2358974 38.1589744,32.2538462 38.1760684,32.2735043 C39.3247863,32.6726496 40.4111111,33.1641026 41.4350427,33.7179487 L41.465812,33.7128205 L41.7786325,33.891453 C41.7803419,33.8923077 41.7820513,33.8931624 41.7837607,33.8940171 C42.1940171,34.1273504 42.5529915,34.3461538 42.8871795,34.5623932 C43.1136752,34.7094017 43.3316239,34.8547009 43.5376068,35.0034188 C46.5495726,37.1632479 48.9512821,38.7615385 50.8777778,39.8880342 C54.357265,41.9247863 56.0589744,42.2880342 57.9222222,42.5504274 L58.1880342,42.5888889 C58.8794872,42.691453 59.5606838,42.742735 60.2179487,42.742735 C68.2333333,42.7418803 72.3239316,35.5247863 73.6649573,32.565812 C73.2615385,32.5880342 72.8564103,32.6111111 72.4461538,32.6401709 C72.4025641,32.642735 72.3581197,32.6461538 72.3145299,32.6495726" id="Fill-26"></path>
                    <path d="M4.81452991,30.0401709 C5.04273504,30.0401709 5.27008547,30.0393162 5.5,30.0393162 C10.3794872,30.0393162 15.2632479,30.0940171 19.6230769,30.1957265 L20.742735,30.2205128 C21.8034188,30.2452991 22.8470085,30.2692308 23.8717949,30.2991453 C23.8675214,30.2854701 23.8632479,30.2683761 23.8589744,30.2538462 C23.8119658,30.0974359 23.765812,29.9324786 23.7179487,29.7581197 C23.7094017,29.7264957 23.7008547,29.6965812 23.6931624,29.6649573 C23.6376068,29.4598291 23.5837607,29.2452991 23.5290598,29.0179487 C23.525641,29.0034188 23.5230769,28.9871795 23.5188034,28.9717949 C23.4709402,28.7700855 23.4247863,28.5598291 23.3794872,28.3418803 C23.3649573,28.2726496 23.3504274,28.2008547 23.3367521,28.1290598 C23.3008547,27.9538462 23.2675214,27.7735043 23.234188,27.5880342 C23.2188034,27.5068376 23.2042735,27.4264957 23.1905983,27.342735 C23.1521368,27.1196581 23.1162393,26.8888889 23.0820513,26.6529915 C23.0760684,26.6102564 23.0692308,26.5700855 23.0632479,26.5282051 C23.025641,26.2529915 22.9897436,25.9675214 22.9581197,25.6752137 C22.9487179,25.5854701 22.9410256,25.4905983 22.9316239,25.3982906 C22.9111111,25.1880342 22.891453,24.974359 22.8752137,24.7555556 C22.865812,24.6418803 22.8581197,24.5282051 22.8495726,24.4136752 C22.8358974,24.191453 22.8247863,23.9641026 22.8145299,23.7358974 C22.8111111,23.6555556 22.8051282,23.5803419 22.8025641,23.4982906 C22.182906,23.4837607 21.5649573,23.4683761 20.9470085,23.4547009 L19.8367521,23.4282051 C15.4564103,23.3247863 10.5367521,23.2700855 5.60854701,23.2700855 C5.34273504,23.2700855 5.07863248,23.2717949 4.81452991,23.2717949 C3.23076923,23.2735043 1.66923077,23.2803419 0.141025641,23.2931624 C0.094017094,23.2931624 0.047008547,23.2940171 0,23.2948718 L0,30.0632479 C0.047008547,30.0623932 0.094017094,30.0623932 0.141025641,30.0623932 C1.66752137,30.0487179 3.22905983,30.0418803 4.81452991,30.0401709" id="Fill-27"></path>
                    <path d="M99.4393162,13.1717949 C98.0358974,13.1811966 96.6068376,13.1863248 95.1606838,13.1863248 C95.0299145,13.1863248 94.8974359,13.1863248 94.7666667,13.1863248 C90.0179487,13.182906 85.2846154,13.1290598 81.0521368,13.0282051 L79.9384615,13.0025641 C78.8974359,12.9794872 77.8786325,12.9538462 76.8717949,12.9239316 C76.3290598,12.908547 75.7837607,12.8931624 75.2512821,12.8726496 C72.8094017,12.7777778 70.1222222,12.6111111 67.4700855,12.174359 C65.8777778,11.9119658 64.2982906,11.5512821 62.791453,11.0512821 C62.6923077,11.0179487 62.6025641,10.9760684 62.5051282,10.9418803 C61.3384615,10.5376068 60.2521368,10.0726496 59.2213675,9.51282051 C58.5803419,9.63247863 57.6393162,9.95128205 55.3264957,11.3931624 C55.2418803,11.4461538 55.1581197,11.4982906 55.0700855,11.5547009 C54.9470085,11.6316239 54.8196581,11.7136752 54.6897436,11.7965812 C54.5623932,11.8786325 54.4307692,11.9649573 54.2948718,12.0529915 C54.1794872,12.1282051 54.0632479,12.2042735 53.9418803,12.2846154 C53.7589744,12.4059829 53.565812,12.5350427 53.3683761,12.6666667 C53.2760684,12.7299145 53.1880342,12.7880342 53.091453,12.8538462 C52.8059829,13.0470085 52.508547,13.2495726 52.1940171,13.4666667 C52.1940171,13.4666667 52.1940171,13.4666667 52.1948718,13.4675214 C56.2564103,16.3666667 60.9606838,18.1196581 66.9931624,18.9803419 C69.1478632,19.2863248 71.491453,19.4871795 74.3649573,19.6119658 C75.1786325,19.6470085 75.9948718,19.674359 76.8068376,19.6965812 L76.9128205,19.7025641 C77.7188034,19.7230769 78.5837607,19.7435897 79.4452991,19.7641026 L80.8384615,19.7957265 C85.1264957,19.8974359 89.9350427,19.9521368 94.7666667,19.9538462 C94.8666667,19.9538462 94.9675214,19.9547009 95.0675214,19.9547009 C96.5452991,19.9547009 98.0042735,19.9487179 99.4393162,19.9401709 C99.4837607,19.9393162 99.5282051,19.9393162 99.5726496,19.9393162 L99.5726496,13.1709402 C99.5282051,13.1717949 99.4837607,13.1717949 99.4393162,13.1717949" id="Fill-29"></path>
                    <path d="M48.1820513,40.7478632 C47.8222222,40.5205128 47.4444444,40.2769231 47.0581197,40.0230769 C46.9538462,39.9555556 46.8487179,39.8863248 46.742735,39.8162393 C46.3384615,39.5495726 45.9247863,39.274359 45.491453,38.9794872 C45.4820513,38.9735043 45.4717949,38.9666667 45.4623932,38.9598291 C45.0324786,38.6675214 44.5820513,38.3555556 44.1213675,38.0333333 C44.0051282,37.9512821 43.8880342,37.8700855 43.7692308,37.7863248 C43.2905983,37.4504274 42.8025641,37.1051282 42.2905983,36.7384615 C42.0863248,36.5923077 41.8675214,36.4461538 41.634188,36.2974359 C41.5564103,36.2470085 41.4692308,36.1957265 41.3863248,36.1452991 C41.2717949,36.0752137 41.165812,36.0068376 41.0418803,35.9333333 C41.0384615,35.9333333 41.0358974,35.9333333 41.0324786,35.9333333 C39.6076923,36.0940171 38.2632479,35.4675214 36.9735043,34.1230769 C36.9059829,34.0521368 36.8376068,33.9880342 36.7700855,33.9136752 C36.7675214,33.9102564 36.765812,33.908547 36.7632479,33.9068376 C36.2461538,33.334188 35.7931624,32.6965812 35.408547,32.0837607 C35.2726496,31.8666667 35.1461538,31.6547009 35.0282051,31.4487179 C34.7119658,30.8948718 34.4598291,30.3897436 34.2846154,30.0111111 C34.0905983,29.5940171 33.9871795,29.3299145 33.9837607,29.3230769 L33.8435897,28.9752137 C33.8307692,28.9487179 32.891453,26.8017094 32.7692308,23.2247863 C32.7555556,22.8880342 32.7521368,22.534188 32.7555556,22.1683761 L32.757265,21.9547009 L32.7649573,21.2700855 L32.7649573,21.2393162 L32.7555556,21.0564103 C32.7521368,20.6923077 32.7555556,20.3401709 32.7692308,20.0034188 C32.7692308,20.0017094 32.7692308,19.9991453 32.7692308,19.9965812 C32.8547009,17.5059829 33.3376068,15.7051282 33.6213675,14.842735 L33.6042735,14.8162393 L33.9940171,13.8769231 C33.9948718,13.874359 34.3692308,12.9384615 35.0324786,11.7803419 C35.1521368,11.5717949 35.2794872,11.3581197 35.417094,11.1393162 C35.8051282,10.5247863 36.2615385,9.88461538 36.7803419,9.31196581 C36.8495726,9.23504274 36.9196581,9.17008547 36.9897436,9.0974359 C38.2794872,7.75555556 39.6316239,7.12991453 41.0350427,7.28974359 C41.0376068,7.29059829 41.0410256,7.28974359 41.0435897,7.29059829 C41.1675214,7.21794872 41.2735043,7.14957265 41.3880342,7.07948718 C41.4683761,7.02991453 41.5529915,6.97948718 41.6290598,6.93076923 C41.8623932,6.78119658 42.082906,6.63418803 42.2905983,6.48547009 C42.8025641,6.11880342 43.291453,5.77264957 43.7709402,5.43675214 C43.8871795,5.35555556 44.0017094,5.27435897 44.1153846,5.19487179 C45.0623932,4.53504274 45.942735,3.93589744 46.7632479,3.39487179 C46.8547009,3.33418803 46.9470085,3.27350427 47.0376068,3.21452991 C47.442735,2.94957265 47.8376068,2.69401709 48.2128205,2.45811966 C45.7529915,1.18376068 44.3094017,0.893162393 42.7521368,0.671794872 L42.4931624,0.635042735 C41.8068376,0.534188034 41.1282051,0.482905983 40.4700855,0.482905983 C31.6179487,0.482905983 27.5504274,9.26495726 26.6846154,11.4247863 L26.634188,11.5521368 C26.5948718,11.6521368 26.5615385,11.7384615 26.5410256,11.7965812 C26.4786325,11.9435897 26.4307692,12.0598291 26.3803419,12.1905983 C26,13.1487179 25.1923077,15.5521368 24.9777778,19.0401709 C24.9435897,19.5905983 24.9213675,20.1632479 24.9213675,20.7675214 C24.9213675,21.0358974 24.9222222,21.3068376 24.9299145,21.5854701 C24.9222222,21.9196581 24.9213675,22.1897436 24.9213675,22.4581197 C24.9222222,26.8854701 25.9401709,29.9239316 26.3769231,31.025641 C26.4316239,31.1675214 26.4786325,31.282906 26.5162393,31.3692308 C26.5299145,31.4059829 26.5470085,31.4512821 26.5666667,31.5025641 L26.7119658,31.8683761 C27.6880342,34.2521368 31.7623932,42.742735 40.457265,42.742735 C41.1196581,42.742735 41.7991453,42.691453 42.4786325,42.5905983 L42.7547009,42.5504274 C44.3111111,42.3307692 45.7538462,42.0418803 48.2119658,40.7666667 C48.2025641,40.7606838 48.1923077,40.7547009 48.1820513,40.7478632" id="Fill-30"></path>
                    <path d="M95.0547009,22.2717949 C94.9589744,22.2717949 94.8623932,22.2717949 94.7666667,22.2717949 C89.9393162,22.2735043 85.1316239,22.3282051 80.8410256,22.4282051 L79.7307692,22.4547009 C78.7717949,22.4760684 77.8153846,22.4991453 76.8547009,22.5264957 C75.9965812,22.5512821 75.1794872,22.5769231 74.3606838,22.6119658 C71.5025641,22.7358974 69.1615385,22.9376068 66.9923077,23.2452991 C60.9606838,24.1042735 56.2564103,25.857265 52.1931624,28.757265 C52.5042735,28.9717949 52.8017094,29.1760684 53.0846154,29.3666667 C53.2051282,29.4487179 53.3153846,29.5213675 53.4307692,29.6 C53.6076923,29.717094 53.7837607,29.8350427 53.9487179,29.9452991 C54.0717949,30.0264957 54.1871795,30.1017094 54.3034188,30.1769231 C54.4504274,30.2735043 54.5940171,30.3666667 54.7316239,30.4547009 C54.842735,30.5264957 54.9504274,30.5948718 55.0555556,30.6615385 C55.1880342,30.7461538 55.3162393,30.8247863 55.4401709,30.9025641 C55.534188,30.9606838 55.6290598,31.0205128 55.717094,31.0735043 C55.8504274,31.1547009 55.974359,31.2290598 56.0974359,31.3025641 C56.1666667,31.342735 56.2401709,31.3880342 56.3059829,31.4264957 C56.4837607,31.5307692 56.6512821,31.6264957 56.808547,31.7128205 C56.8623932,31.7435897 56.9102564,31.7692308 56.9623932,31.7965812 C57.0675214,31.8547009 57.1717949,31.9111111 57.2675214,31.9606838 C57.325641,31.9923077 57.3803419,32.0188034 57.4350427,32.0470085 C57.517094,32.0880342 57.5965812,32.1282051 57.6717949,32.1641026 C57.7230769,32.1888889 57.7735043,32.2128205 57.8222222,32.2358974 C57.8940171,32.2692308 57.9623932,32.3008547 58.0290598,32.3290598 C58.0709402,32.3478632 58.1153846,32.3675214 58.1555556,32.3846154 C58.2239316,32.4128205 58.2871795,32.4376068 58.3504274,32.4623932 C58.3811966,32.474359 58.4145299,32.4880342 58.4435897,32.4991453 C58.5299145,32.5307692 58.6119658,32.5589744 58.6880342,32.582906 C58.7094017,32.5897436 58.7299145,32.5948718 58.7504274,32.6017094 C58.8051282,32.617094 58.857265,32.6333333 58.9068376,32.6444444 C58.934188,32.6529915 58.9606838,32.6581197 58.9880342,32.6649573 C59.0264957,32.6735043 59.0641026,32.682906 59.1008547,32.6897436 C59.1273504,32.6965812 59.1529915,32.7017094 59.1786325,32.7051282 C59.191453,32.708547 59.2059829,32.7111111 59.2179487,32.7128205 C59.2179487,32.7128205 59.2188034,32.7128205 59.2196581,32.7128205 C60.2367521,32.1615385 61.3401709,31.6888889 62.4940171,31.2871795 C62.5897436,31.2538462 62.6803419,31.2119658 62.7777778,31.1786325 C63.7410256,30.8581197 64.7393162,30.6094017 65.7470085,30.3931624 C67.3,30.0589744 68.882906,29.8222222 70.4461538,29.6666667 C71.5692308,29.5547009 72.6803419,29.4752137 73.757265,29.4196581 C74.2641026,29.3931624 74.7632479,29.3709402 75.2521368,29.3521368 C75.7888889,29.3307692 76.3376068,29.3162393 76.8854701,29.2991453 C77.8863248,29.2709402 78.8991453,29.2444444 79.9333333,29.2205128 L81.0538462,29.1957265 C85.2905983,29.0974359 90.0247863,29.0435897 94.7666667,29.0401709 C94.8897436,29.0401709 95.0128205,29.0401709 95.1358974,29.0401709 C96.591453,29.0401709 98.0282051,29.0452991 99.4393162,29.0555556 C99.4837607,29.0555556 99.5282051,29.0555556 99.5726496,29.0555556 L99.5726496,22.2863248 C99.5282051,22.2863248 99.4837607,22.2863248 99.4393162,22.2854701 C98.0008547,22.2760684 96.5358974,22.2717949 95.0547009,22.2717949" id="Fill-31"></path>
                </g>
            </g>
        </g>
    </g>
</svg>